<?xml version="1.0" encoding="utf-8" ?>
<svg xmlns="http://www.w3.org/2000/svg" xmlns:xlink="http://www.w3.org/1999/xlink" width="512" height="512">
	<path transform="scale(0.5 0.5)" d="M1024 512Q1024 524.569 1023.38 537.123Q1022.77 549.676 1021.53 562.185Q1020.3 574.693 1018.46 587.126Q1016.61 599.559 1014.16 611.886Q1011.71 624.214 1008.66 636.406Q1005.6 648.598 1001.95 660.626Q998.305 672.653 994.07 684.487Q989.836 696.322 985.026 707.934Q980.216 719.546 974.842 730.908Q969.469 742.27 963.544 753.355Q957.619 764.44 951.157 775.22Q944.695 786.001 937.712 796.452Q930.729 806.902 923.242 816.998Q915.755 827.093 907.781 836.809Q899.808 846.525 891.367 855.838Q882.926 865.151 874.039 874.039Q865.151 882.926 855.838 891.367Q846.525 899.808 836.809 907.781Q827.093 915.755 816.998 923.242Q806.902 930.729 796.452 937.712Q786.001 944.695 775.22 951.157Q764.44 957.619 753.355 963.544Q742.27 969.469 730.908 974.842Q719.546 980.216 707.934 985.026Q696.322 989.836 684.488 994.07Q672.653 998.305 660.626 1001.95Q648.598 1005.6 636.406 1008.66Q624.214 1011.71 611.886 1014.16Q599.559 1016.61 587.126 1018.46Q574.693 1020.3 562.185 1021.53Q549.676 1022.77 537.123 1023.38Q524.569 1024 512 1024Q499.431 1024 486.877 1023.38Q474.324 1022.77 461.815 1021.53Q449.307 1020.3 436.874 1018.46Q424.441 1016.61 412.114 1014.16Q399.786 1011.71 387.594 1008.66Q375.402 1005.6 363.374 1001.95Q351.347 998.305 339.512 994.07Q327.678 989.836 316.066 985.026Q304.454 980.216 293.092 974.842Q281.73 969.469 270.645 963.544Q259.56 957.619 248.779 951.157Q237.999 944.695 227.548 937.712Q217.097 930.729 207.002 923.242Q196.907 915.755 187.191 907.781Q177.475 899.808 168.162 891.367Q158.849 882.926 149.961 874.039Q141.074 865.151 132.633 855.838Q124.192 846.525 116.219 836.809Q108.245 827.093 100.758 816.998Q93.2705 806.902 86.2876 796.452Q79.3046 786.001 72.8429 775.22Q66.3812 764.44 60.4563 753.355Q54.5314 742.27 49.1575 730.908Q43.7836 719.546 38.9737 707.934Q34.1638 696.322 29.9294 684.488Q25.6951 672.653 22.0465 660.626Q18.398 648.598 15.344 636.406Q12.29 624.214 9.83794 611.886Q7.38587 599.559 5.54163 587.126Q3.69739 574.693 2.46542 562.185Q1.23345 549.676 0.616726 537.123Q0 524.569 0 512Q0 499.431 0.616726 486.877Q1.23345 474.324 2.46542 461.815Q3.69739 449.307 5.54163 436.874Q7.38587 424.441 9.83794 412.114Q12.29 399.786 15.344 387.594Q18.398 375.402 22.0465 363.374Q25.6951 351.347 29.9294 339.512Q34.1638 327.678 38.9737 316.066Q43.7836 304.454 49.1575 293.092Q54.5314 281.73 60.4563 270.645Q66.3812 259.56 72.8429 248.779Q79.3046 237.999 86.2876 227.548Q93.2705 217.097 100.758 207.002Q108.245 196.907 116.219 187.191Q124.192 177.475 132.633 168.162Q141.074 158.849 149.961 149.961Q158.849 141.074 168.162 132.633Q177.475 124.192 187.191 116.219Q196.907 108.245 207.002 100.758Q217.097 93.2705 227.548 86.2876Q237.999 79.3046 248.779 72.8429Q259.56 66.3812 270.645 60.4563Q281.73 54.5314 293.092 49.1575Q304.454 43.7836 316.066 38.9737Q327.678 34.1638 339.512 29.9294Q351.347 25.6951 363.374 22.0465Q375.402 18.398 387.594 15.344Q399.786 12.29 412.114 9.83794Q424.441 7.38587 436.874 5.54163Q449.307 3.69739 461.815 2.46542Q474.324 1.23345 486.877 0.616726Q499.431 0 512 0Q524.569 0 537.123 0.616726Q549.676 1.23345 562.185 2.46542Q574.693 3.69739 587.126 5.54163Q599.559 7.38587 611.886 9.83794Q624.214 12.29 636.406 15.344Q648.598 18.398 660.626 22.0465Q672.653 25.6951 684.487 29.9294Q696.322 34.1638 707.934 38.9737Q719.546 43.7836 730.908 49.1575Q742.27 54.5314 753.355 60.4563Q764.44 66.3812 775.22 72.8429Q786.001 79.3046 796.452 86.2876Q806.902 93.2705 816.998 100.758Q827.093 108.245 836.809 116.219Q846.525 124.192 855.838 132.633Q865.151 141.074 874.039 149.961Q882.926 158.849 891.367 168.162Q899.808 177.475 907.781 187.191Q915.755 196.907 923.242 207.002Q930.729 217.097 937.712 227.548Q944.695 237.999 951.157 248.779Q957.619 259.56 963.544 270.645Q969.469 281.73 974.842 293.092Q980.216 304.454 985.026 316.066Q989.836 327.678 994.07 339.512Q998.305 351.347 1001.95 363.374Q1005.6 375.402 1008.66 387.594Q1011.71 399.786 1014.16 412.114Q1016.61 424.441 1018.46 436.874Q1020.3 449.307 1021.53 461.815Q1022.77 474.324 1023.38 486.877Q1024 499.431 1024 512Z"/>
	<path fill="white" transform="scale(0.5 0.5)" d="M231.76 506.6C381.02 441.56 480.54 398.7 530.34 377.98C672.54 318.84 702.08 308.56 721.34 308.22C725.58 308.16 735.04 309.2 741.18 314.18C746.36 318.38 747.78 324.06 748.46 328.04C749.14 332.04 750 341.1 749.32 348.2C741.62 429.16 708.28 625.62 691.32 716.3C684.14 754.68 670 767.54 656.32 768.8C626.6 771.54 604.02 749.14 575.22 730.26C530.16 700.74 504.7 682.34 460.96 653.52C410.4 620.2 443.18 601.9 471.98 571.98C479.52 564.14 610.52 444.98 613.06 434.18C613.38 432.82 613.68 427.78 610.68 425.12C607.68 422.46 603.26 423.38 600.08 424.1C595.56 425.12 523.58 472.7 384.12 566.84C363.68 580.88 345.16 587.7 328.58 587.36C310.3 586.96 275.14 577.02 249 568.52C216.94 558.1 191.46 552.58 193.68 534.88C194.82 525.66 207.52 516.24 231.76 506.6L231.76 506.6Z"/>
</svg>
